<?xml version='1.0' encoding='utf-8'?>
<svg xmlns:xlink="http://www.w3.org/1999/xlink" xmlns="http://www.w3.org/2000/svg" viewBox="0 0 638.65 621.66"> <defs> <linearGradient id="b"> <stop stop-color="#d5d5d5" offset="0"/> <stop stop-color="#989898" offset="1"/> </linearGradient> <linearGradient id="a"> <stop stop-color="#f4e709" offset="0"/> <stop stop-color="#f3f551" offset=".0336"/> <stop stop-color="#fbf551" offset=".62162"/> <stop stop-color="#9b6b2e" offset="1"/> </linearGradient> <linearGradient id="p" x1="381.12" x2="417.35" gradientUnits="userSpaceOnUse"> <stop stop-color="#d5c9dc" offset="0"/> <stop stop-color="#624d54" offset="1"/> </linearGradient> <linearGradient id="q" x1="-135" x2="-133" y1="100" y2="470" gradientTransform="matrix(1.0507 0 0 .97436 639.83 -47.431)" gradientUnits="userSpaceOnUse"> <stop stop-color="#8e98d2" offset="0"/> <stop stop-color="#aaacdc" offset="1"/> </linearGradient> <linearGradient id="c" x1="252.68" x2="256.11" gradientUnits="userSpaceOnUse" xlink:href="#a"/> <linearGradient id="o" x1="388.4" x2="406.07" gradientUnits="userSpaceOnUse" xlink:href="#a"/> <linearGradient id="n" x1="320.15" x2="325.83" gradientUnits="userSpaceOnUse" xlink:href="#a"/> <linearGradient id="m" x1="251.98" x2="255.41" gradientUnits="userSpaceOnUse" xlink:href="#a"/> <linearGradient id="l" x1="128.59" x2="132.02" gradientUnits="userSpaceOnUse" xlink:href="#a"/> <linearGradient id="k" x1="128.23" x2="131.66" gradientUnits="userSpaceOnUse" xlink:href="#a"/> <linearGradient id="j" x1="463.24" x2="472.29" gradientUnits="userSpaceOnUse" xlink:href="#a"/> <linearGradient id="i" x1="318.99" x2="328.04" gradientUnits="userSpaceOnUse" xlink:href="#a"/> <linearGradient id="h" x1="464.75" x2="470.43" gradientUnits="userSpaceOnUse" xlink:href="#a"/> <linearGradient id="g" x2="0" y1="422.52" y2="435.02" gradientUnits="userSpaceOnUse" xlink:href="#b"/> <linearGradient id="f" x2="0" y1="435.52" y2="448.02" gradientUnits="userSpaceOnUse" xlink:href="#b"/> <linearGradient id="e" x1="393.95" x2="403" gradientUnits="userSpaceOnUse" xlink:href="#a"/> <linearGradient id="d" x1="396.52" x2="402.19" gradientUnits="userSpaceOnUse" xlink:href="#a"/> </defs> <g transform="translate(-72.832 -108.3)"> <path d="m278.4743,110.9235c.2034.18307.53056.44653.71875.5625 .24303.14977.50303.23071.84375.21875s.76662-.1139 1.34375-.34375c1.15426-.45969 2.91162-1.39426 5.84375-3.0625-2.06133.91774-4.39022,1.65415-6.9375,2.28125-.56247.13847-1.22978.21841-1.8125.34375z" fill="url(#q)"/> <path d="m329.29 428.77h167.5v24.5h-167.5z" fill="#716892"/> <path d="m190.98 391.69 2.2005 58.726 60.985 3.6913v-63.256l-63.185 0.83894z" fill="#fefcfd" fill-rule="evenodd" stroke="#fdfcfd"/> <path d="m254.32 390.94 0.47154 62.918 75.76-1.0014 0.31435-63.419-76.545 1.502z" fill="#eadeed" fill-rule="evenodd" stroke="#eadeed"/> <path d="m365.35 667.45-3.5625 1.0625-33.031-3 0.35355 27.974 37.146 2.9007-0.90625-28.938z" fill="#49456d" fill-rule="evenodd"/> <path d="m118.68 546.41-0.22228-9.5582 2.4451 1.3337 0.44456 2.8897h-2.4451l-0.66684-4.4456" fill="#c9c9c9" fill-rule="evenodd" stroke="#bfbfad"/> <path d="m118.05 457.98 0.04339 24.568 6.9701-0.391 0.02893-24.763-7.0424 0.58649z" fill="#eadeed" fill-rule="evenodd" stroke="#eadeed"/> <path d="m316.66 563.95-22.375 13-1.5312 74.375-1.2188 12.688s0.68102 18.586 1.3438 36.375l22.75-11.656c-0.60298-15.841-1.4062-31.688-1.4062-31.688l2.125-17.219 0.3125-75.875z" fill="#422f23" fill-rule="evenodd"/> <path d="m459.35 679.05-13.062 9.2188-0.4688-0.03125v29.625l13.906-11.812-0.375-27z" fill="#443766" fill-rule="evenodd"/> <path d="m460.63 560.2-13 6.0625v70.219l-1.8125 9.375v42.375l0.4688 0.03125 13.062-9.2188-0.5313-41.031 3.0313-13.938-1.2188-63.875z" fill="#59462e" fill-rule="evenodd"/> <path d="m445.41 688.2-55.406-3.2812 0.1973 28.89 55.021 4.6409s0.0805-15.468 0.1875-30.25z" fill="#49456d" fill-rule="evenodd"/> <path d="m386.22 564.55c0.60495 1.5124-0.3125 67.094-0.3125 67.094l4.25 14.844-0.15625 38.438 55.406 3.2812c0.1474-20.37 0.3681-41.924 0.7187-42.625 0.605-1.21 2.0938-10.281 2.0938-10.281l-0.5938-68.938-61.406-1.8125z" fill="#875827" fill-rule="evenodd"/> <path d="m383.51 564.2-18.156 8.4688 0.90625 55.344-2.0938 9.375 0.3125 30.312 16.906-5.0625v-35.219l3.0312-11.5-0.90625-51.719z" fill="#422f23" fill-rule="evenodd"/> <path d="m365.35 572.36-38.719 1.2188-0.59375 46.281 2.7188 6.3438v39.312l33.031 3 3.5625-1.0625-0.90625-29.156 2.4375-11.188-1.5312-54.75z" fill="#7c4727" fill-rule="evenodd"/> <path d="m265.54 553.92-19.062 9.9688v70.469l-5.125 10.594 0.15625 32.844 0.4375 0.03125 22.25-11.406 0.125-26.594 2.7188-9.0938-1.5-76.812z" fill="#422f23" fill-rule="evenodd"/> <path d="m264.19 666.42-22.25 11.406-0.4375-0.03125 0.125 31 22.406-11.5 0.15625-30.875z" fill="#3d354f" fill-rule="evenodd"/> <path d="m249.19 573.14v70.625l2.7188 18.125 0.78125 35.25 39.969 3.375 0.1875-0.09375-0.6875-36.719 1.2188-12.688 0.59375-74.562-44.781-3.3125z" fill="#875827" fill-rule="evenodd"/> <path d="m241.51 677.8-50.781-4.2812-0.1875-0.0625v0.84375l0.48039 28.287 50.613 6.2132-0.125-31z" fill="#49456d" fill-rule="evenodd"/> <path d="m187.19 560.39v64l3.625 14.531-0.28125 34.531 0.1875 0.0625 50.781 4.2812-0.15625-32.531 4.8438-11.188-0.90625-70.469-58.094-3.2188z" fill="#875827" fill-rule="evenodd"/> <path d="m160.35 557.24v19" fill="none" stroke="#b3b4c9"/> <path d="m157.29 556.24v16.5" fill="none" stroke="#b3b4c9" stroke-width="2.5"/> <path d="m355.79 436.02h19.25v13.25h-19.25z" fill="url(#f)"/> <path d="m337.29 423.02h37.25v13.25h-37.25z" fill="url(#g)"/> <path d="m121.86 547.26 139.85 30.983 0.19752-122.94-139.44-10.587-0.60497 102.54z" fill="#432e2c" fill-rule="evenodd" stroke="#fbf25e" stroke-width="3"/> <path d="m263.12 455 258.62-5.4447-0.3025 114.64-259.53 13.914 1.2099-123.11z" fill="#432e2c" fill-rule="evenodd" stroke="#fbf25e" stroke-width="3"/> <path d="m187.65 390.86 0.02237 56.483 3.5931-2.5505-0.03887-54.804-3.5766 0.87117z" fill="#eadeed" fill-rule="evenodd" stroke="#eadeed"/> <path d="m187.65 390.86 0.02237 56.483 3.5931-2.5505-0.03887-54.804-3.5766 0.87117z" fill="#eadeed" fill-rule="evenodd" stroke="#eadeed"/> <path d="m244.92 478.57 0.40838 33.358 65.612-0.53089 0.27225-33.623-66.292 0.79633z" fill="#eadeed" fill-rule="evenodd" stroke="#eadeed"/> <path d="m465.14 380.76 0.2223 8.4467-58.905-0.22229 1.7783-7.5576 56.904-0.66684z" fill="#78667e" fill-rule="evenodd"/> <path d="m470.48 402.65-0.5557 13.559h17.449l-0.3334 9.6693-3.0008 4.7791-5.2236 1.2226-73.242 1.0003-0.33343-26.896 11.67-4.5568 53.57 1.2226z" fill="#3f2d4a" fill-rule="evenodd"/> <path d="m436.69 337.63h28.23l-11.114 5.7794-17.338-0.22228 0.2223-5.5571z" fill="#3b2844" fill-rule="evenodd"/> <path d="m381.12 408.76h33.342v22.228h-33.342z" fill="url(#p)" stroke="#cdcdbe"/> <path d="m388.9 384.54 0.22228 67.352 16.449 1e-5 -0.22228-67.574-16.449 0.22228z" fill="url(#o)" fill-rule="evenodd"/> <path d="m463.5 453.09 0.1138 56.075 8.4256 1e-5 -0.1138-56.26-8.4256 0.18507z" fill="url(#j)" fill-rule="evenodd"/> <path d="m394.2 454.15 0.11386 56.075 8.4256 1e-5 -0.11385-56.26-8.4256 0.18507z" fill="url(#e)" fill-rule="evenodd"/> <path d="m319.25 453.09 0.11386 56.075 8.4256 1e-5 -0.11385-56.26-8.4256 0.18507z" fill="url(#i)" fill-rule="evenodd"/> <path d="m464.91 509.3 0.0714 56.075 5.286 1e-5 -0.0714-56.26-5.286 0.18507z" fill="url(#h)" fill-rule="evenodd"/> <path d="m396.68 512.84 0.07143 56.075 5.286 1e-5 -0.07143-56.26-5.286 0.18507z" fill="url(#d)" fill-rule="evenodd"/> <path d="m320.31 516.37 0.07143 56.075 5.286 1e-5 -0.07143-56.26-5.286 0.18507z" fill="url(#n)" fill-rule="evenodd"/> <path d="m252.07 514.62 0.04315 60.656 3.193 1e-5 -0.04315-60.856-3.193 0.20019z" fill="url(#m)" fill-rule="evenodd"/> <path d="m128.68 489.87 0.04315 60.656 3.193 1e-5 -0.04315-60.856-3.193 0.20019z" fill="url(#l)" fill-rule="evenodd"/> <path d="m128.33 438.96 0.04315 60.656 3.193 1e-5 -0.04315-60.856-3.193 0.20019z" fill="url(#k)" fill-rule="evenodd"/> <path d="m252.78 452.04 0.04315 60.656 3.193 1e-5 -0.04315-60.856-3.193 0.20019z" fill="url(#c)" fill-rule="evenodd" stroke="#f7f53a"/> <path d="m252.78 452.04 0.04315 60.656 3.193 1e-5 -0.04315-60.856-3.193 0.20019z" fill="url(#c)" fill-rule="evenodd"/> <path d="m369.67 365.09h8.2245v7.2242h-8.2245z" fill="#8f727b"/> <path d="m369.67 356.53h14.337v7.5576h-14.337z" fill="#dfbdae"/> <path d="m373.56 333.41v18.227l7.3353-0.44457 0.44456-18.449c-1.959-3.0956-5.9504-2.2488-7.7799 0.66685z" fill="#f33d59" fill-rule="evenodd" stroke="#f33d59"/> <path d="m433.8 351.19-0.2222 9.3359 36.232 0.22228-0.8891-9.3359-35.121-0.22228z" fill="#82728c" fill-rule="evenodd"/> <path d="m377.67 363.2 0.22228 9.2247-9.447 0.33342-0.88913 7.0019 1.7783 3.0008-4.8902 0.66685 23.34 2.1117 0.66685 0.22228 17.116 0.55571-0.22228 1.4448 1.4448-0.55571 1.3337-5.4459 11.114-0.33343 0.2223-17.116h-10.003l-2.4451-11.336-1.8894 8.1133-9.8916-0.22229-5.1125-5.8905-5.1125 3.6677-1.4448 5.2236-5.8905-0.66685z" fill="#bd6d20" fill-rule="evenodd" stroke="#f5f235"/> <path d="m262.07 343.7 16.794-0.70711" fill="#f2f060" fill-rule="evenodd" stroke="#f2f060" stroke-width="1.9"/> <path d="m81.671 380.12 0.7071 39.952" fill="none" stroke="#858585"/> <path d="m84.05 378.17-0.30249-3.176 28.381-1.9661 133.8 6.2471 0.55248 7.667-135.21-4.5372-27.223-4.2347z" fill="none" stroke="#f2f060"/> <path d="m85.383 419.54c-0.7071-3.182 0.53034-39.775 0.53034-39.775" fill="none" stroke="#858585"/> <g transform="translate(-21.213 -57.983)" fill="none" stroke="#f8fdb7"> <path d="m267.41 415.18 0.44457-35.565 2.0005-0.22228-0.66685 35.676"/> <path d="m267.85 395.84c0.88913 0.22228 1.8894-0.11114 1.8894-0.11114"/> <path d="m267.63 403.84c0.88913 0.22228 1.8894 0 1.8894 0"/> <path d="m269.96 379.61 3.6677-0.66685 1.1114 35.676"/> </g> <path d="m255.25 321.31-72.577 30.662" fill="none" stroke="#858585"/> <path d="m325.53 364.35-48.588 3.0041s-82.132 0-83.843 0.42777-29.089-2.1389-29.089-2.1389l56.894-3.4222 104.63 2.1291z" fill="#464646" fill-rule="evenodd"/> <path d="m181.35 352.13-87.923 21.205" fill-rule="evenodd" stroke="#858585"/> <path d="m253.74 325.54-64.725 27.588" fill="none" stroke="#858585"/> <path transform="translate(-21.213 -57.983)" d="m211.42 411.35a5.4264 1.6545 0 1 1-10.853 0 5.4264 1.6545 0 1 1 10.853 0z" fill="#f8f304"/> <path d="m78.001 373.64h5.4447v6.3521h-5.4447z" fill="#f2f060"/> <path transform="matrix(.88174 -.47174 .47174 .88174 -217.18 40.206)" d="m101.33 439.94a3.4785 1.9661 0 1 1-6.9571 0 3.4785 1.9661 0 1 1 6.9571 0z" fill="#f2f060"/> <path d="m183.61 354.74-74.151 17.686" fill="none" stroke="#858585"/> <path d="m159.37 362.45 1.2223 4.3798 58.971-4.0773 105.66 1.47 5.0472-4.4948-113.13-1.5124-57.774 4.2347z" fill="#b5bdc8" fill-rule="evenodd"/> <path d="m245.79 379.27-4.75 7.5-5.75-7.75-4 7.25-2.5-7.5-4.75 7.25-3.5-8-3.75 8-3.5-8.25-4.25 7.75-2.75-8s-4.5 7.75-5.75 7.5-2.5-7.75-2.5-7.75l-4.25 8.25-3.5-8.5-3.25 7.75-3.25-8-4 8.5-3-8.75-5.25 8-2-8-3.75 7.25-4.5-7-4.75 6.75-4.5-7.5-4.25 7.5-4.25-8.75-4.25 8.75-4-8.5s-3.25 6-3.25 7-3.75-6.25-4-7.5-3.5 7.25-3.5 7.25l-3.5-7-4.5 8-4.25-8.5-5.25 7.5s-1.5-6.75-1.5-7.75-4.75 6.75-4.75 6.75l-1.75-6.5-4.25 5.25s-0.75-2.75-0.75-5l-4.25 4.25-4.5-4" fill="none" stroke="#f2f060"/> <path d="m190.98 368.38 46.839-1.4146 0.62871 23.891-47.153-0.15717-0.31435-22.319z" fill="#9a8898" fill-rule="evenodd"/> <path d="m73.787 384.77v42.75" fill="#9d9fc2" fill-rule="evenodd" stroke="#858585"/> <path transform="translate(-21.213 -58.336)" d="m96.167 487.07a1.0607 1.2374 0 1 1-2.1213 0 1.0607 1.2374 0 1 1 2.1213 0z" fill="#bbb"/> <path transform="translate(-21.213 -57.983)" d="m106.77 477.52a1.591 3.0052 0 1 1-3.182 0 1.591 3.0052 0 1 1 3.182 0z" fill="#bbb"/> <path transform="translate(-20.86 -59.043)" d="m105.71 482.65a1.0607 1.4142 0 1 1-2.1213 0 1.0607 1.4142 0 1 1 2.1213 0z" fill="#bbb"/> <path d="m260.83 331.6 18.12 11.049" fill="none" stroke="#f2f060"/> <path d="m260.57 327.71 2.4749 29.698" fill="none" stroke="#f2f060"/> <path d="m254.92 328.52-0.16671 28.508" fill="none" stroke="#f2f060"/> <path d="m259.51 327.62-3.9801 29.598" fill="none" stroke="#f2f060" stroke-width="1.6"/> <path d="m254.2 327.44-7.0662 29.593" fill="none" stroke="#f2f060" stroke-width="1.7"/> <path d="m144.94 359.58c1.8149 0 68.573-3.7872 68.573-3.7872l130.97 1.2099-8.3645 2.9198-119.29-1.6999-58.369 4.2247-13.522-2.8674z" fill="#d9e9ff" fill-rule="evenodd"/> <path d="m250.67 346.53 6.364-0.35355" fill="none" stroke="#f2f060"/> <path d="m260.22 328.15-7.4246-0.35356v-0.35355l3.0936-7.3362 3.4472-0.08839 0.88388 8.1317z" fill="#f4ed4c" fill-rule="evenodd" stroke="#f2f060"/> <path d="m246.42 329.63c0.88913 0.22228 1.8894 0 1.8894 0" fill="none" stroke="#f8fdb7"/> <path d="m406.24 132.02v7.113l10.447-1.7782-0.44457-6.8908-10.003 1.556z" fill="none" stroke="#cdcdbe"/> <path d="m416.24 130.24 10.003 0.88913-0.2222 6.4462-9.1136-0.22229-0.66685-7.113z" fill="none" stroke="#cdcdbe"/> <path d="m410.24 131.36-0.22228 6.8908" fill="none" stroke="#cdcdbe"/> <path d="m406.24 135.58 9.7804-1.556" fill="none" stroke="#cdcdbe"/> <path d="m425.8 134.25-9.1136-0.22229" fill="none" stroke="#cdcdbe"/> <path d="m421.13 130.47v6.6685" fill="none" stroke="#cdcdbe"/> <path d="m425.8 140.02-7.3354-12.226-8.0021 12.67 5.3348-0.66685 10.003 0.22228z" fill="none" stroke="#cdcdbe"/> <path d="m416.46 139.8 2.0005-11.781" fill="none" stroke="#cdcdbe"/> <path d="m410.02 141.8c0.22228 1.3337-3.7788 18.005-3.7788 18.005l5.3348-1.7783-1.556-16.227z" fill="none" stroke="#cdcdbe"/> <path d="m414.46 141.14-2.8897 16.004 6.8907-0.44456-4.001-15.56z" fill="none" stroke="#cdcdbe"/> <path d="m415.35 142.02c0.88913 0.44456 6.8907 14.004 8.4467 14.004s1.7783-14.671 1.7783-14.671l3.5565 14.893-10.67 0.22229-3.1119-14.448z" fill="none" stroke="#cdcdbe"/> <path d="m406.68 160.25-0.22228 112.7" fill="none" stroke="#cdcdbe"/> <path d="m419.13 156.7-0.4446 115.81" fill="none" stroke="#cdcdbe"/> <path d="m429.13 157.14 0.8891 114.92-10.892-12.003 10.225-17.338-8.0022-12.226" fill="none" stroke="#cdcdbe"/> <path d="m420.68 260.06 7.5576-0.66685" fill="none" stroke="#cdcdbe"/> <path d="m420.02 226.71c1.3337 0.22228 9.1136-0.22229 9.1136-0.22229" fill="none" stroke="#cdcdbe"/> <path d="m427.13 222.05-7.1131-10.892" fill="none" stroke="#cdcdbe"/> <path d="m420.68 204.93 7.7799 1.1114" fill="none" stroke="#cdcdbe"/> <path d="m428.46 205.15-8.0022-11.114" fill="none" stroke="#cdcdbe"/> <path d="m420.68 191.15 8.0021 0.44457" fill="none" stroke="#cdcdbe"/> <path d="m422.02 186.7 7.5576-8.8913" fill="none" stroke="#cdcdbe"/> <path d="m428.69 176.7-8.8913-0.44456" fill="none" stroke="#cdcdbe"/> <path d="m419.8 162.25c1.556 1.3337 9.3359 12.226 9.3359 12.226" fill="none" stroke="#cdcdbe"/> <path d="m420.68 160.92c0.8891 0 8.669 0.66685 8.669 0.66685" fill="none" stroke="#cdcdbe"/> <path d="m425.8 206.49 0.8891 19.783" fill="none" stroke="#cdcdbe"/> <path d="m407.13 178.03c4.0011 0.88913 10.003 0.22228 10.003 0.22228" fill="none" stroke="#cdcdbe"/> <path d="m408.46 193.59 8.8913-0.22228" fill="none" stroke="#cdcdbe"/> <path d="m406.9 208.04c1.3337 0.22228 10.892 0.44456 10.892 0.44456" fill="none" stroke="#cdcdbe"/> <path d="m408.24 224.94 9.7804 0.66684" fill="none" stroke="#cdcdbe"/> <path d="m407.57 247.61 11.114 2.8897" fill="none" stroke="#cdcdbe"/> <path d="m418.02 254.28-17.116 11.114" fill="none" stroke="#cdcdbe"/> <path d="m408.24 192.26c1.1114-0.44456 9.3358-13.115 9.3358-13.115" fill="none" stroke="#cdcdbe"/> <path d="m407.35 160.92 10.892 16.893" fill="none" stroke="#cdcdbe"/> <path d="m407.13 193.82c0.44456 0.88913 10.003 13.337 10.003 13.337" fill="none" stroke="#cdcdbe"/> <path d="m407.57 211.15c1.3337 1.3337 10.67 13.559 10.67 13.559" fill="none" stroke="#cdcdbe"/> <path d="m407.57 246.72 10.447-19.339" fill="none" stroke="#cdcdbe"/> <path d="m388.9 249.17-0.44456 93.581" fill="none" stroke="#cdcdbe"/> <path d="m402.01 248.28-0.22229 94.47" fill="none" stroke="#cdcdbe"/> <path d="m387.34 245.39 14.671-2.4451" fill="none" stroke="#cdcdbe"/> <path d="m388.9 245.61 0.66685 3.3342 2.2228-2.8897 0.44456 2.8897 2.6674-3.5565 0.22229 3.3342s2.8897-5.7793 2.8897-4.8902 2.4451 3.7788 2.4451 3.7788l-0.22228-4.0011" fill="none" stroke="#cdcdbe"/> <path d="m388.9 250.05 12.448-1.3337" fill="none" stroke="#cdcdbe"/> <path d="m402.01 255.39-13.115 2.4451c0.44457 1.556 3.3342 5.1125 3.3342 5.1125l2.8897-5.7794 3.112 4.0011 3.112-4.8902" fill="none" stroke="#cdcdbe"/> <path d="m389.57 262.72 12.003-1.1114" fill="none" stroke="#cdcdbe"/> <path d="m388.68 269.62 12.67-2.2228" fill="none" stroke="#cdcdbe"/> <path d="m389.34 275.62 4.2234-5.7794 2.0005 5.3348 3.7788-6.0016 2.0005 4.4456-0.22228 0.66685-11.781 1.3337z" fill="none" stroke="#cdcdbe"/> <path d="m390.23 276.95 5.7794 13.115 5.3348-14.448" fill="none" stroke="#cdcdbe"/> <path d="m388.68 290.95 12.003-1.556" fill="none" stroke="#cdcdbe"/> <path d="m389.79 292.29 3.7788 11.559 1.7783-13.115 1.3337 12.67 5.5571-4.4456" fill="none" stroke="#cdcdbe"/> <path d="m389.79 314.29c0.88913 1.7783 10.892 24.896 10.892 24.896" fill="none" stroke="#cdcdbe"/> <path d="m391.34 339.19 9.7804-16.004" fill="none" stroke="#cdcdbe"/> <path d="m389.34 322.96 12.448-0.66685" fill="none" stroke="#cdcdbe"/> <path d="m388.68 338.52 12.448 0.44457" fill="none" stroke="#cdcdbe"/> <path d="m388.01 235.83c1.3337-0.44456 10.447-2.2228 10.447-2.2228" fill="none" stroke="#cdcdbe"/> <path d="m394.68 235.38 4.0011 7.3353" fill="none" stroke="#cdcdbe"/> <path d="m390.01 237.61-0.44457 7.113" fill="none" stroke="#cdcdbe"/> <path d="m390.45 233.83-0.22228-5.3348" fill="none" stroke="#cdcdbe"/> <path d="m391.34 228.72c0.88913 0.66685 3.5565 2.4451 3.5565 2.4451l-4.4456-0.22228 0.88913-2.2228z" fill="none" stroke="#cdcdbe"/> <path d="m390.23 239.61 8.8913-0.66685v4.0011l-6.0016-1.7783-2.8897-1.556z" fill="none" stroke="#cdcdbe"/> <path d="m403.35 274.28 16.227 1.3337" fill="none" stroke="#cdcdbe"/> <path d="m415.35 272.06c2.0005 0.66684 18.672 0 18.672 0" fill="none" stroke="#cdcdbe"/> <path d="m411.57 360.53 50.236 1.1114 0.2222 8.2245-41.122-1.1114-9.3359-8.2245z" fill="#3c2c36" fill-rule="evenodd"/> <path d="m434.47 274.06 0.2223 74.909" fill="none" stroke="#cdcdbe"/> <path d="m429.58 272.73-5.7794 17.56-2.2228-14.448" fill="none" stroke="#cdcdbe"/> <path d="m457.58 370.09 5.3348 11.336-98.372 4.8587-0.91536-17.842 93.952 1.647z" fill="#716892" fill-rule="evenodd"/> <path d="m419.8 276.95c-0.2222 1.3337-0.2222 17.116-0.2222 17.116l-9.7805 49.569" fill="none" stroke="#cdcdbe"/> <path d="m417.57 276.73-12.448 66.24" fill="none" stroke="#cdcdbe"/> <path d="m376.01 323.41 29.341-37.121" fill="none" stroke="#cdcdbe"/> <path d="m403.35 289.4c4.6679 1.3337 17.116 1.556 17.116 1.556l14.004-1.1114 5.1125-0.66684" fill="none" stroke="#cdcdbe"/> <path d="m403.12 275.17c1.1114 1.7783 11.559 15.338 11.559 15.338" fill="none" stroke="#cdcdbe"/> <path d="m403.12 291.18 8.669 15.56-9.3359-0.66685" fill="none" stroke="#cdcdbe"/> <path d="m402.46 310.74 6.4462 12.448-6.8908-0.88913" fill="none" stroke="#cdcdbe"/> <path d="m393.57 323.63-2.4451 13.782" fill="none" stroke="#cdcdbe"/> <path d="m452.03 389.65 0.2223 4.2234-46.012-0.22228 0.44456-4.6679 47.568 0.22229-2.2228 0.44456z" fill="#453741" fill-rule="evenodd"/> <path d="m420.02 292.07c0.6669 1.7783 4.8902 15.115 4.8902 15.115l-0.2222 17.783 5.557 34.454" fill="none" stroke="#cdcdbe"/> <path d="m476.94 394.09 0.6502 8.4467-104.08-1.2882-0.27853-7.3808 103.71 0.22228z" fill="#524366" fill-rule="evenodd"/> <path d="m429.35 291.62 0.4446 22.895 1.3337 37.788" fill="none" stroke="#cdcdbe"/> <path d="m411.13 314.74c0 1.1114 1.556 12.226 1.556 12.226" fill="none" stroke="#cdcdbe"/> <path d="m417.13 314.07 0.22225 28.008" fill="none" stroke="#cdcdbe"/> <path d="m420.02 298.73 1.1114 41.345" fill="none" stroke="#cdcdbe"/> <path d="m412.02 160.03-1.1114 113.59" fill="none" stroke="#cdcdbe"/> <path d="m415.79 160.25-1.556 112.47" fill="none" stroke="#cdcdbe"/> <path d="m428.02 162.92-6.6685 12.226" fill="none" stroke="#cdcdbe"/> <path d="m421.35 178.7 8.2245 13.559" fill="none" stroke="#cdcdbe"/> <path d="m428.69 194.04-7.113 10.447" fill="none" stroke="#cdcdbe"/> <path d="m428.02 227.83c0 1.1114-6.2239 12.67-6.2239 12.67" fill="none" stroke="#cdcdbe"/> <path d="m420.68 243.83 6.6684 10.892" fill="none" stroke="#cdcdbe"/> <path d="m428.02 260.5-7.113 9.5582" fill="none" stroke="#cdcdbe"/> <path d="m382.45 304.96 16.671-0.44456" fill="none" stroke="#f5f235"/> <path d="m378.9 309.85c0.11113 0.11114 21.117-0.66685 21.117-0.66685" fill="none" stroke="#f5f235"/> <path d="m378.34 313.29c2.4451 0.22228 22.339-0.33342 22.339-0.33342" fill="none" stroke="#f5f235"/> <path d="m398.46 305.18-0.66684 76.91" fill="none" stroke="#f5f235"/> <path d="m384.01 304.96 0.44456 75.576" fill="none" stroke="#f5f235"/> <path d="m384.67 336.08c1.556 0 13.337-0.66684 13.337-0.66684" fill="none" stroke="#f5f235"/> <path d="m385.56 349.86h11.559" fill="none" stroke="#f5f235"/> <path d="m385.12 367.2c2.2228 0.88913 11.336 0.44456 11.336 0.44456" fill="none" stroke="#f5f235"/> <path d="m369.56 357.64-0.66685 21.117" fill="none" stroke="#f7f53a"/> <path d="m378.67 357.86c0.44457 1.3337 0 21.561 0 21.561" fill="none" stroke="#f7f53a"/> <path d="m369.12 371.42 8.8913-0.44457" fill="none" stroke="#f5f235"/> <path d="m369.56 364.53c1.1114 0.44456 8.8913 0.22228 8.8913 0.22228" fill="none" stroke="#f7f53a"/> <path d="m380.01 372.53-16.004-0.22228 0.88913 11.114 42.068 3.4263 12.238-5.1329" fill="none" stroke="#f5f235"/> <path d="m363.34 379.64 34.232-0.44456 12.67 1.556" fill="none" stroke="#f7f53a"/> <path d="m410.68 382.98 0.44456-10.225-12.67-60.683" fill="none" stroke="#f7f53a"/> <path d="m435.8 343.41h32.676l0.6669 7.3353-33.787-0.22229 0.4446-7.113z" fill="none" stroke="#bfbfad"/> <path d="m438.02 343.41 0.2223 6.7796" fill="none" stroke="#bfbfad"/> <path d="m443.8 344.08 0.1111 6.2239" fill="none" stroke="#bfbfad"/> <path d="m453.14 344.3 0.2223 6.6685" fill="none" stroke="#bfbfad"/> <path d="m464.92 343.86 0.2223 6.4462" fill="none" stroke="#bfbfad"/> <path d="m435.8 347.41h32.898" fill="none" stroke="#bfbfad"/> <path d="m439.8 330.74 24.896-0.88913" fill="none" stroke="#bfbfad"/> <path d="m440.13 330.63 0.1111 6.7796" fill="none" stroke="#bfbfad"/> <path d="m464.03 330.52v7.3353" fill="none" stroke="#bfbfad"/> <path d="m458.92 330.08 0.2223 7.4465" fill="none" stroke="#bfbfad"/> <path d="m451.8 330.3 0.1112 7.2242" fill="none" stroke="#bfbfad"/> <path d="m447.58 330.74 0.2222 6.4462" fill="none" stroke="#bfbfad"/> <path d="m440.02 333.19 24.006-0.22228" fill="none" stroke="#bfbfad"/> <path d="m463.81 329.19 0.2223-9.5582-2.4451 1.3337-0.4446 2.8897h2.4451l0.6669-4.4456" fill="#c9c9c9" fill-rule="evenodd" stroke="#bfbfad"/> <path d="m417.35 129.58-0.88909-5.7794-0.22229-5.5571c-3.9646 0.11061-6.751 1.3994-6.0016 6.2239l6.6685 0.44457 0.44453 4.6679z" fill="none" stroke="#a9abdb"/> <path d="m408.68 130.69 0.22229-12.892-5.1125-6.4462c-5.118 1.6281-6.9593 4.4477-5.5571 8.4467l10.225 0.22228 0.22228 10.67z" fill="none" stroke="#a9abdb"/> <path d="m403.57 378.76 0.22229-38.455" fill="none" stroke="#f7f53a"/> <path d="m400.9 377.42 1.1114-44.901" fill="none" stroke="#f7f53a"/> <path d="m407.13 378.76v-7.3353l-1.3337-20.895" fill="none" stroke="#f7f53a"/> <path d="m386.45 315.85 8.2245 51.792" fill="none" stroke="#f5f235"/> <path d="m385.12 374.31 11.781 0.66685" fill="none" stroke="#f5f235"/> <path d="m388.68 376.09-0.22228 2.2228" fill="none" stroke="#f5f235"/> <path d="m392.01 374.98 0.22228 4.0011" fill="none" stroke="#f5f235"/> <path d="m394.68 374.75-0.22228 4.2234" fill="none" stroke="#f5f235"/> <path d="m383.34 374.75h-18.227" fill="none" stroke="#f7f53a"/> <path d="m368.89 357.19 15.115-0.66685-0.22229-5.1125-14.671 1.556-0.22228 4.2234z" fill="#d6bfc6" fill-rule="evenodd" stroke="#f7f53a"/> <path d="m369.56 346.3 14.448-1.1114" fill="none" stroke="#f7f53a"/> <path d="m369.56 349.19 14.226-0.88913" fill="none" stroke="#f7f53a"/> <path d="m370 346.08 0.44457 6.6685" fill="none" stroke="#f7f53a"/> <path d="m381.12 345.64v5.5571" fill="none" stroke="#f5f235"/> <path d="m375.78 345.64v5.5571" fill="none" stroke="#f7f53a"/> <path d="m372.67 346.08 0.44457 6.0016" fill="none" stroke="#f8f63e"/> <path d="m377.34 330.52-0.44457-7.3353 6.6685-9.5582" fill="none" stroke="#9c4965"/> <path d="m369.12 353.19s-3.4454-0.55571-4.4456 2.6674-0.44456 5.5015 0.44457 10.225 3.112 8.669 3.112 8.669" fill="none" stroke="#86779a"/> <path d="m419.35 364.31-0.2223 16.893" fill="none" stroke="#f7f53a"/> <path d="m409.35 364.31c1.3337 0.22229 9.7804-0.44456 9.7804-0.44456" fill="none" stroke="#f7f53a"/> <path d="m375.78 396.09 0.44457 9.5582 40.011-0.22228 0.44457-9.7804-40.9 0.44457z" fill="#da8d2b" fill-rule="evenodd" stroke="#f2f134"/> <path d="m383.79 395.65-0.22228 10.003" fill="none" stroke="#f2f134"/> <path d="m400.9 396.09 0.44457 9.7804" fill="none" stroke="#f2f134"/> <path d="m376.45 399.21h40.233" fill="none" stroke="#f2f134"/> <path d="m376.45 403.21 39.566-0.22228" fill="none" stroke="#f2f134"/> <path d="m489.15 181.37-80.244 174.94" fill="none" stroke="#f4ed4c"/> <path d="m497.82 180.48-87.746 183.83" fill="none" stroke="#f4ed4c"/> <path d="m505.37 181.59-85.968 187.22" fill="none" stroke="#f4ed4c"/> <path d="m489.15 180.7 8.2245-0.44457 8.2244 0.66685" fill="none" stroke="#f4ed4c"/> <path d="m416.24 356.08 10.225 0.66685" fill="none" stroke="#f4ed4c"/> <path d="m417.79 350.3 10.225 0.66685" fill="none" stroke="#f4ed4c"/> <path d="m421.35 344.52 10.225 0.66685" fill="none" stroke="#f4ed4c"/> <path d="m424.91 338.3 10.225 0.66685" fill="none" stroke="#f4ed4c"/> <path d="m427.35 331.63 10.225 0.66685" fill="none" stroke="#f4ed4c"/> <path d="m428.02 328.3 10.225 0.66685" fill="none" stroke="#f4ed4c"/> <path d="m430.24 323.63 10.225 0.66685" fill="none" stroke="#f4ed4c"/> <path d="m432.24 318.52 10.225 0.66685" fill="none" stroke="#f4ed4c"/> <path d="m434.91 314.29 10.225 0.66685" fill="none" stroke="#f4ed4c"/> <path d="m437.8 308.29 10.225 0.66685" fill="none" stroke="#f4ed4c"/> <path d="m439.36 302.96 10.225 0.66685" fill="none" stroke="#f4ed4c"/> <path d="m441.8 298.51 10.225 0.66685" fill="none" stroke="#f4ed4c"/> <path d="m443.58 294.96 10.225 0.66685" fill="none" stroke="#f4ed4c"/> <path d="m446.02 290.07 10.225 0.66685" fill="none" stroke="#f4ed4c"/> <path d="m448.69 284.51 10.225 0.66685" fill="none" stroke="#f4ed4c"/> <path d="m450.92 279.62 10.225 0.66685" fill="none" stroke="#f4ed4c"/> <path d="m452.92 274.73 10.225 0.66685" fill="none" stroke="#f4ed4c"/> <path d="m455.14 270.5 10.225 0.66685" fill="none" stroke="#f4ed4c"/> <path d="m457.36 265.61 10.225 0.66685" fill="none" stroke="#f4ed4c"/> <path d="m459.14 260.95 10.225 0.66685" fill="none" stroke="#f4ed4c"/> <path d="m462.47 256.72 10.225 0.66685" fill="none" stroke="#f4ed4c"/> <path d="m463.59 251.61 10.225 0.66685" fill="none" stroke="#f4ed4c"/> <path d="m467.14 241.83 10.225 0.66685" fill="none" stroke="#f4ed4c"/> <path d="m465.59 248.05 10.225 0.66685" fill="none" stroke="#f4ed4c"/> <path d="m472.7 231.6 10.225 0.66685" fill="none" stroke="#f4ed4c"/> <path d="m471.37 236.27 10.225 0.66685" fill="none" stroke="#f4ed4c"/> <path d="m474.7 227.83 10.225 0.66685" fill="none" stroke="#f4ed4c"/> <path d="m476.7 223.38 10.225 0.66685" fill="none" stroke="#f4ed4c"/> <path d="m479.37 219.16 10.225 0.66685" fill="none" stroke="#f4ed4c"/> <path d="m480.48 214.71 10.225 0.66685" fill="none" stroke="#f4ed4c"/> <path d="m483.59 209.15 10.225 0.66685" fill="none" stroke="#f4ed4c"/> <path d="m486.26 202.71 10.225 0.66685" fill="none" stroke="#f4ed4c"/> <path d="m488.48 196.71 10.225 0.66685" fill="none" stroke="#f4ed4c"/> <path d="m491.15 190.48 10.225 0.66685" fill="none" stroke="#f4ed4c"/> <path d="m494.48 184.7 10.225 0.66685" fill="none" stroke="#f4ed4c"/> <path d="m494.42 184.76 7.6826 6.7804" fill="none" stroke="#f4ed4c"/> <path d="m491.09 190.09 7.6825 6.7804" fill="none" stroke="#f4ed4c"/> <path d="m489.09 196.98 7.6825 6.7804" fill="none" stroke="#f4ed4c"/> <path d="m485.97 202.76 7.6825 6.7804" fill="none" stroke="#f4ed4c"/> <path d="m484.19 208.99 7.6826 6.7804" fill="none" stroke="#f4ed4c"/> <path d="m480.86 213.66 7.6825 6.7804" fill="none" stroke="#f4ed4c"/> <path d="m479.53 218.55 7.6825 6.7804" fill="none" stroke="#f4ed4c"/> <path d="m477.53 222.1 7.6825 6.7804" fill="none" stroke="#f4ed4c"/> <path d="m475.3 226.55 7.6825 6.7804" fill="none" stroke="#f4ed4c"/> <path d="m472.86 230.99 7.6825 6.7804" fill="none" stroke="#f4ed4c"/> <path d="m470.86 236.11 7.6825 6.7804" fill="none" stroke="#f4ed4c"/> <path d="m466.63 243.22 7.6825 6.7804" fill="none" stroke="#f4ed4c"/> <path d="m465.08 247 7.6825 6.7804" fill="none" stroke="#f4ed4c"/> <path d="m463.3 251.44 7.6825 6.7804" fill="none" stroke="#f4ed4c"/> <path d="m460.41 256.33 7.6825 6.7804" fill="none" stroke="#f4ed4c"/> <path d="m457.74 261.22 7.6825 6.7804" fill="none" stroke="#f4ed4c"/> <path d="m454.41 268.78 7.6825 6.7804" fill="none" stroke="#f4ed4c"/> <path d="m452.19 275.23 7.6826 6.7804" fill="none" stroke="#f4ed4c"/> <path d="m449.96 280.56 7.6825 6.7804" fill="none" stroke="#f4ed4c"/> <path d="m447.3 286.12 7.6825 6.7804" fill="none" stroke="#f4ed4c"/> <path d="m445.07 291.9 7.6825 6.7804" fill="none" stroke="#f4ed4c"/> <path d="m442.85 297.01 7.6825 6.7804" fill="none" stroke="#f4ed4c"/> <path d="m440.63 300.57 7.6826 6.7804" fill="none" stroke="#f4ed4c"/> <path d="m437.96 306.35 7.6825 6.7804" fill="none" stroke="#f4ed4c"/> <path d="m435.29 311.46 7.6825 6.7804" fill="#afb2df" fill-rule="evenodd" stroke="#f4ed4c"/> <path d="m432.4 319.02 7.6825 6.7804" fill="none" stroke="#f4ed4c"/> <path d="m430.18 325.91 7.6825 6.7804" fill="none" stroke="#f4ed4c"/> <path d="m427.74 331.69 7.6825 6.7804" fill="#afb2df" fill-rule="evenodd" stroke="#f4ed4c"/> <path d="m425.29 337.02 7.6826 6.7804" fill="#afb2df" fill-rule="evenodd" stroke="#f4ed4c"/> <path d="m422.18 342.13 7.6825 6.7804" fill="none" stroke="#f4ed4c"/> <path d="m420.18 346.36 7.6826 6.7804" fill="none" stroke="#f4ed4c"/> <path d="m416.84 351.47 7.6825 6.7804" fill="none" stroke="#f4ed4c"/> <path d="m486.26 185.6 10.224-0.67775" fill="none" stroke="#f4ed4c"/> <path d="m484.48 191.38 10.224-0.67775" fill="none" stroke="#f4ed4c"/> <path d="m481.81 198.05 10.224-0.67775" fill="none" stroke="#f4ed4c"/> <path d="m479.15 203.38 10.224-0.67775" fill="none" stroke="#f4ed4c"/> <path d="m475.81 210.05 10.224-0.67775" fill="none" stroke="#f4ed4c"/> <path d="m474.48 214.27 10.224-0.67775" fill="none" stroke="#f4ed4c"/> <path d="m471.81 219.61 10.224-0.67775" fill="none" stroke="#f4ed4c"/> <path d="m467.59 228.72 10.224-0.67775" fill="none" stroke="#f4ed4c"/> <path d="m464.47 235.17 10.224-0.67775" fill="none" stroke="#f4ed4c"/> <path d="m460.7 243.84 10.224-0.67775" fill="none" stroke="#f4ed4c"/> <path d="m457.36 252.06 10.224-0.67775" fill="none" stroke="#f4ed4c"/> <path d="m451.58 261.62 10.224-0.67775" fill="none" stroke="#f4ed4c"/> <path d="m447.8 268.73 10.224-0.67775" fill="none" stroke="#f4ed4c"/> <path d="m445.36 275.4 10.224-0.67775" fill="none" stroke="#f4ed4c"/> <path d="m443.58 279.62 10.224-0.67775" fill="none" stroke="#f4ed4c"/> <path d="m440.69 285.62 10.224-0.67775" fill="none" stroke="#f4ed4c"/> <path d="m437.36 292.52 10.224-0.67775" fill="none" stroke="#f4ed4c"/> <path d="m433.13 302.07 10.224-0.67775" fill="none" stroke="#f4ed4c"/> <path d="m429.58 309.41 10.224-0.67775" fill="none" stroke="#f4ed4c"/> <path d="m424.91 318.3 10.224-0.67775" fill="none" stroke="#f4ed4c"/> <path d="m423.13 322.75 10.224-0.67775" fill="none" stroke="#f4ed4c"/> <path d="m419.8 329.86 10.224-0.67775" fill="none" stroke="#f4ed4c"/> <path d="m416.68 337.19 10.224-0.67775" fill="none" stroke="#f4ed4c"/> <path d="m415.13 342.31 10.224-0.67775" fill="none" stroke="#f4ed4c"/> <path d="m411.57 348.98 10.224-0.67775" fill="none" stroke="#f4ed4c"/> <path d="m408.01 356.09 10.224-0.67775" fill="none" stroke="#f4ed4c"/> <path d="m484.92 189.59-94.915 114.92" fill="none" stroke="#8576a3"/> <path d="m480.92 207.6-86.023 96.471" fill="none" stroke="#8576a3"/> <path d="m502.04 190.93-0.4446 35.788" fill="none" stroke="#8576a3"/> <path d="m494.7 206.04c-0.2223 2.6674 0 21.117 0 21.117" fill="none" stroke="#8576a3"/> <path d="m492.48 212.04 0.4446 15.337" fill="none" stroke="#8576a3"/> <path transform="translate(-21.213 -57.983)" d="m516.14 288.7a1.2226 2.8897 0 1 1-2.4451 0 1.2226 2.8897 0 1 1 2.4451 0z" fill="#8274a5" stroke="#7b6b93" stroke-width="1.7"/> <path transform="translate(-21.213 -57.983)" d="m515.92 293.92a0.33342 1.6671 0 1 1-0.66685 0 0.33342 1.6671 0 1 1 0.66685 0z" fill="#8274a5" stroke="#7b6b93" stroke-width="1.7"/> <path transform="translate(-21.213 -57.983)" d="m523.03 287.14a0.33342 1.556 0 1 1-0.66684 0 0.33342 1.556 0 1 1 0.66684 0z" fill="#85749e" stroke="#85749e" stroke-width="1.7"/> <path d="m383.73 408.93-0.11114 22.006" fill="none" stroke="#cdcdbe"/> <path d="m386.01 408.88-0.11114 22.006" fill="none" stroke="#cdcdbe"/> <path d="m407.51 408.82-0.11114 22.006" fill="none" stroke="#cdcdbe"/> <path d="m410.52 408.65-0.11114 22.006" fill="none" stroke="#cdcdbe"/> <path d="m413.07 432.21 15.615-29.786" fill="none" stroke="#cdcdbe"/> <path d="m427.3 406.54c0 0.22228 4.6679 25.951 4.6679 25.951" fill="none" stroke="#cdcdbe"/> <path d="m438.91 431.83 4.4457-28.952" fill="none" stroke="#cdcdbe"/> <path d="m443.75 405.26 10.558 21.061" fill="none" stroke="#cdcdbe"/> <path d="m457.31 403.6c-0.0555 0.22229-2.0005 20.617-2.0005 20.617" fill="none" stroke="#cdcdbe"/> <path d="m458.64 403.93c0 0.27785 0.6669 19.616 0.6669 19.616" fill="none" stroke="#cdcdbe"/> <path d="m472.81 415.1s-3.1119 2.2228-3.3898 2.1672-2.3617-2.9591-5.0569-2.7785-2.9591 2.5701-5.7238 3.501-5.3348 0.22228-5.3348 0.22228" fill="none" stroke="#cdcdbe"/> <path d="m415.35 426.99 70.686-0.88914" fill="none" stroke="#a57859"/> <path d="m478.26 426.55 0.2222 5.3348" fill="none" stroke="#a57859"/> <path d="m472.48 426.1 0.2223 5.3348" fill="none" stroke="#a57859"/> <path d="m464.92 425.88 0.2223 5.3348" fill="none" stroke="#a57859"/> <path d="m458.03 425.66 0.2223 5.3348" fill="none" stroke="#a57859"/> <path d="m452.69 426.1 0.2222 5.3348" fill="none" stroke="#a57859"/> <path d="m446.02 426.32 0.2223 5.3348" fill="none" stroke="#a57859"/> <path d="m439.58 426.99 0.2223 5.3348" fill="none" stroke="#a57859"/> <path d="m432.91 426.77 0.2223 5.3348" fill="none" stroke="#a57859"/> <path d="m426.24 427.44 0.2223 5.3348" fill="none" stroke="#a57859"/> <path d="m420.24 427.21 0.2223 5.3348" fill="none" stroke="#a57859"/> <path d="m416.02 427.21 0.22228 5.3348" fill="none" stroke="#a57859"/> <path d="m484.7 429.21-68.908 0.66685" fill="none" stroke="#a57859"/> <path d="m499.82 441.66 199.17-228.95" fill="none" stroke="#fbf25e"/> <path d="m696.76 208.71-201.83 228.06" fill="none" stroke="#fbf25e"/> <path d="m698.54 209.6-201.83 228.06" fill="none" stroke="#fbf25e"/> <path d="m699.43 211.82-201.83 228.06" fill="none" stroke="#fbf25e"/> <path d="m708.32 214.93c-2.2229 1.3337-35.565 40.9-35.565 40.9l-151.6 221.84" fill="none" stroke="#fbf25e"/> <path d="m687.42 242.05-132.48 246.29-33.342 16.004" fill="none" stroke="#fbf25e"/> <path d="m663.42 231.83 4.4456 5.7794" fill="none" stroke="#fbf25e"/> <path d="m667.86 231.83 3.5565 4.4457" fill="none" stroke="#fbf25e"/> <path d="m661.19 223.82 24.451-2.6674" fill="none" stroke="#fbf25e"/> <path d="m710.99 221.66-0.4445 7.5576" fill="none" stroke="#fbf25e"/> <path d="m702.93 221.49-0.4446 7.5576" fill="none" stroke="#fbf25e"/> <path d="m690.98 221.32-0.4445 7.5576" fill="none" stroke="#fbf25e"/> <path d="m685.81 220.99-0.4445 7.5576" fill="none" stroke="#fbf25e"/> <path d="m685.65 221.6 25.34 0.44457" fill="none" stroke="#fbf25e"/> <path d="m662.58 231.66 21.728-2.723 26.507 0.50014-18.672 3.2787-29.564-1.0558z" fill="#3f2e4d" fill-rule="evenodd"/> <path d="m661.92 223.6 6.1683 7.2798" fill="none" stroke="#fbf25e"/> <path d="m675.36 222.55-0.2223 7.7243" fill="none" stroke="#fbf25e"/> <path d="m668.81 223.38-0.2223 7.7243" fill="none" stroke="#fbf25e"/> <path d="m662.47 224.44-0.2223 7.7243" fill="none" stroke="#fbf25e"/> <path d="m680.53 221.55-0.2223 7.7243" fill="none" stroke="#fbf25e"/> <path d="m662.58 225.77c0.2223 0.05557 22.951-2.723 22.951-2.723" fill="none" stroke="#fbf25e"/> <path d="m662.69 227.71c0.2223 0.05557 22.951-2.723 22.951-2.723" fill="none" stroke="#fbf25e"/> <path d="m662.53 229.77c0.2223 0.05557 22.951-2.723 22.951-2.723" fill="none" stroke="#fbf25e"/> <path d="m710.99 223.94c-0.3334 0.16671-25.34-0.44457-25.34-0.44457" fill="none" stroke="#fbf25e"/> <path d="m710.76 225.88c-0.3335 0.16671-25.34-0.44457-25.34-0.44457" fill="none" stroke="#fbf25e"/> <path d="m710.6 227.49c-0.3335 0.16671-25.34-0.44457-25.34-0.44457" fill="none" stroke="#fbf25e"/> <path d="m681.53 234.31-0.4715 18.704-22.005 5.8156 3.6151 28.135-35.836 8.9591 6.2871 46.21-51.711 6.2871 17.447 58.627" fill="none" stroke="#fbf25e"/> <path d="m596.65 410.66-67.901-1.4146" fill="none" stroke="#fbf25e"/> <path d="m527.97 411.13c0.3143 1.5718 26.406 77.646 26.406 77.646" fill="none" stroke="#fbf25e"/> <path d="m529.38 410.35 47.782 37.094" fill="none" stroke="#fbf25e"/> <path d="m555.63 377.81c1.1003 0.47153 41.966 30.335 41.966 30.335" fill="none" stroke="#fbf25e"/> <path d="m582.19 349.2c3.3007 2.8292 32.536 25.62 32.536 25.62" fill="none" stroke="#fbf25e"/> <path d="m646.01 275.96 16.661 11.002" fill="none" stroke="#fbf25e"/> <path d="m672.41 243.74 8.4876 9.2735" fill="none" stroke="#fbf25e"/> <path d="m707.62 207.9c-1.2574 1.729-5.9728 7.5445-5.9728 7.5445l-6.6014 1.8861-2.9864 3.7723" fill="none" stroke="#fbf25e"/> <path d="m528.44 467.56 30.178 24.205" fill="none" stroke="#fbf25e"/> <path d="m521.99 486.1c1.4146 0.15718 31.278 2.0433 31.278 2.0433" fill="none" stroke="#fbf25e"/> <path d="m522.31 482.18 52.34-32.064" fill="none" stroke="#fbf25e"/> <path d="m568.05 410.82 9.745 33.95" fill="none" stroke="#fbf25e"/> <path d="m569.62 406.89 44.324-29.392" fill="none" stroke="#fbf25e"/> <path d="m612.06 345.9c0.1572 0.94306 4.401 27.192 4.401 27.192" fill="none" stroke="#fbf25e"/> <path d="m591.94 376.39 21.69-0.31435" fill="none" stroke="#fbf25e"/> <path d="m579.05 353.45-9.5879 53.755" fill="none" stroke="#fbf25e"/> <path d="m556.57 379.07 12.26 29.392" fill="none" stroke="#fbf25e"/> <path d="m605.45 321.85c0.4715 1.729 7.5445 21.69 7.5445 21.69" fill="none" stroke="#fbf25e"/> <path d="m624.16 300.48-10.374 41.966" fill="none" stroke="#fbf25e"/> <path d="m606.87 321.7 25.62 20.119" fill="none" stroke="#fbf25e"/> <path d="m646.32 315.88-31.907 27.506" fill="none" stroke="#fbf25e"/> <path d="m627.46 298.28c0.3144 0.94306 5.8156 15.561 5.8156 15.561" fill="none" stroke="#fbf25e"/> <path d="m634.22 314.47c0.3143 0.62871 13.36-0.15718 13.36-0.15718" fill="none" stroke="#fbf25e"/> <path d="m627.62 297.49c0.4716 0.94306 21.062 15.875 21.062 15.875" fill="none" stroke="#fbf25e"/> <path d="m650.09 290.73c0 1.4146-0.9431 21.69-0.9431 21.69" fill="none" stroke="#fbf25e"/> <path d="m651.98 287.43 18.704-15.089" fill="none" stroke="#fbf25e"/> <path d="m646.01 276.27c0.1572 0.78589 4.8725 12.26 4.8725 12.26" fill="none" stroke="#fbf25e"/> <path d="m659.05 260.4c-0.3143 1.1002-7.5445 28.449-7.5445 28.449" fill="none" stroke="#fbf25e"/> <path d="m660.15 261.03c0 1.4146 3.4579 9.4306 3.4579 9.4306l8.8019-1.4146" fill="none" stroke="#fbf25e"/> <path d="m673.51 255.21c0 1.1002-0.4716 12.731-0.4716 12.731" fill="none" stroke="#fbf25e"/> <path d="m672.41 244.52c0.3144 1.729 2.8292 9.745 2.8292 9.745" fill="none" stroke="#fbf25e"/> <path d="m681.21 235.41c-0.1572 0.78589-3.9295 13.36-3.9295 13.36" fill="none" stroke="#fbf25e"/> <path d="m688.13 233.21-15.246 23.419" fill="none" stroke="#fbf25e"/> <path d="m544.31 446.97 31.907 0.62871" fill="none" stroke="#fbf25e"/> <path d="m525.76 412.55c0 0.62871-4.0866 37.094-4.0866 37.094" fill="none" stroke="#fbf25e"/> <path d="m237.82 366.49c2.5148 0.62871 34.893 0.62872 34.893 0.62872l0.62871 23.262-34.972 0.31435-0.55013-24.205z" fill="#876d7f" fill-rule="evenodd"/> <path d="m312.32 365.24v23.577" fill="none" stroke="#9a8898"/> <path d="m329.61 364.29v24.52" fill="none" stroke="#9a8898"/> <path d="m289.37 366.81 0.94306 23.577" fill="none" stroke="#9a8898"/> <path d="m197.64 360.33-0.30248 4.187 7.937-0.17748 0.67749-4.312-8.312 0.30249z" fill="#79adfb" fill-rule="evenodd"/> <path d="m194.46 360.93 3.3273-0.90745-0.10496 4.1245-3.3473 0.66746 0.125-3.8845z" fill="#a0c9f9" fill-rule="evenodd"/> <path d="m205.28 364.27 17.679 0.16746-0.01002-4.2071-17.646-0.14742-0.02243 4.187z" fill="#bcbcbc" fill-rule="evenodd"/> <path d="m222.89794,368.34388c.0625-.375.01386-3.95163.01386-3.95163s-25.5625-.5-25.5-.25-.3125,3.75.0625,3.75 25.42364.51413 25.42364.45163z" fill="#dadada" fill-rule="evenodd"/> <path d="m197.7243,367.82975c-.0625-.25-.125-3.8125-.125-3.8125l-3.375.75-.0625,3.3125 3.5625-.25z" fill="#eaeaea" fill-rule="evenodd"/> <path d="m513.19 478.72-18.547 20.119" fill="none" stroke="#ffd44f"/> <path d="m513.01 482.08-18.547 20.119" fill="none" stroke="#ffd44f"/> <path d="m512.31 485.79-18.547 20.119" fill="none" stroke="#ffd44f"/> <path d="m513.19 487.91-18.547 20.119" fill="none" stroke="#ffd44f"/> <path d="m480.13 498.38 14.496 0.17677" fill="none" stroke="#ffd44f"/> <path d="m480.3 501.21 14.496 0.17677" fill="none" stroke="#ffd44f"/> <path d="m480.3 504.75 14.496 0.17677" fill="none" stroke="#ffd44f"/> <path d="m479.95 507.75 14.496 0.17677" fill="none" stroke="#ffd44f"/> <path d="m479.95 507.58 14.496 0.17677" fill="none" stroke="#ffd44f"/> <path d="m479.77 498.21v9.7227" fill="none" stroke="#ffd44f"/> <path d="m494.44 498.38 0.1768 9.3692" fill="none" stroke="#ffd44f"/> <path d="m512.65 478.76-0.1768 10.43" fill="none" stroke="#ffd44f"/> <path d="m296.9 360.52-18.547 20.119" fill="none" stroke="#ffd44f"/> <path d="m296.72 363.87-18.547 20.119" fill="none" stroke="#ffd44f"/> <path d="m296.02 367.59-18.547 20.119" fill="none" stroke="#ffd44f"/> <path d="m296.9 369.71-18.547 20.119" fill="none" stroke="#ffd44f"/> <path d="m263.84 380.18 14.496 0.17677" fill="none" stroke="#ffd44f"/> <path d="m263.84 380.18 14.496 0.17677" fill="none" stroke="#ffd44f"/> <path d="m296.57 360.91 31.752 0.17677" fill="none" stroke="#ffd44f"/> <path d="m331.07 439.91 31.752 0.17677" fill="none" stroke="#ffd44f"/> <path d="m264.01 383.01 14.496 0.17677" fill="none" stroke="#ffd44f"/> <path d="m264.01 383.01 14.496 0.17677" fill="none" stroke="#ffd44f"/> <path d="m296.96 363.74 31.752 0.17677" fill="none" stroke="#ffd44f"/> <path d="m331.46 442.74 31.752 0.17677" fill="none" stroke="#ffd44f"/> <path d="m264.01 386.55 14.496 0.17677" fill="none" stroke="#ffd44f"/> <path d="m264.01 386.55 14.496 0.17677" fill="none" stroke="#ffd44f"/> <path d="m296.96 367.28 31.752 0.17677" fill="none" stroke="#ffd44f"/> <path d="m331.46 446.28 31.752 0.17677" fill="none" stroke="#ffd44f"/> <path d="m263.66 389.55 14.496 0.17677" fill="none" stroke="#ffd44f"/> <path d="m263.66 389.55 14.496 0.17677" fill="none" stroke="#ffd44f"/> <path d="m296.19 370.28 31.752 0.17677" fill="none" stroke="#ffd44f"/> <path d="m330.69 449.28 31.752 0.17677" fill="none" stroke="#ffd44f"/> <path d="m263.66 389.37 14.496 0.17677" fill="none" stroke="#ffd44f"/> <path d="m263.66 389.37 14.496 0.17677" fill="none" stroke="#ffd44f"/> <path d="m296.19 370.11 31.752 0.17677" fill="none" stroke="#ffd44f"/> <path d="m330.69 449.11 31.752 0.17677" fill="none" stroke="#ffd44f"/> <path d="m263.48 380.01v9.7227" fill="none" stroke="#ffd44f"/> <path d="m278.15 380.18 0.17678 9.3692" fill="none" stroke="#ffd44f"/> <path d="m278.15 380.18 0.17678 9.3692" fill="none" stroke="#ffd44f"/> <path d="m327.94 360.91 0.38723 9.3692" fill="none" stroke="#ffd44f"/> <path d="m362.44 439.91 0.38723 9.3692" fill="none" stroke="#ffd44f"/> <path d="m296.36 360.56-0.17678 10.43" fill="none" stroke="#ffd44f"/> <path d="m330.86 439.56-0.17678 10.43" fill="none" stroke="#ffd44f"/> <path d="m512.91 479.29 6.385 0.17677" fill="none" stroke="#ffd44f"/> <path d="m512.98 482.12 6.385 0.17677" fill="none" stroke="#ffd44f"/> <path d="m512.98 485.66 6.385 0.17677" fill="none" stroke="#ffd44f"/> <path d="m512.83 488.66 6.385 0.17677" fill="none" stroke="#ffd44f"/> <path d="m512.83 488.48 6.385 0.17677" fill="none" stroke="#ffd44f"/> <path d="m519.21 479.29 0.0779 9.3692" fill="none" stroke="#ffd44f"/> <path d="m519.55 528.37-24.027 26.039" fill="none" stroke="#ffd44f"/> <path d="m519.38 531.72-24.027 26.039" fill="none" stroke="#ffd44f"/> <path d="m519.55 534.48-24.911 26.994" fill="none" stroke="#ffd44f"/> <path d="m519.73 537.37-24.204 26.23" fill="none" stroke="#ffd44f"/> <path d="m481.01 553.95 14.496 0.17677" fill="none" stroke="#ffd44f"/> <path d="m481.19 556.78 14.496 0.17677" fill="none" stroke="#ffd44f"/> <path d="m481.19 560.32 14.496 0.17677" fill="none" stroke="#ffd44f"/> <path d="m480.83 563.32 14.496 0.17677" fill="none" stroke="#ffd44f"/> <path d="m480.83 563.15 14.496 0.17677" fill="none" stroke="#ffd44f"/> <path d="m480.66 553.78v9.7227" fill="none" stroke="#ffd44f"/> <path d="m495.33 553.95 0.1768 9.3692" fill="none" stroke="#ffd44f"/> <path d="m520.08 527.79-0.1768 10.43" fill="none" stroke="#ffd44f"/> <path d="m520.33 528.32 6.385 0.17677" fill="none" stroke="#ffd44f"/> <path d="m520.41 531.15 6.385 0.17677" fill="none" stroke="#ffd44f"/> <path d="m520.41 534.68 6.385 0.17677" fill="none" stroke="#ffd44f"/> <path d="m520.25 537.69 6.385 0.17677" fill="none" stroke="#ffd44f"/> <path d="m520.25 537.51 6.385 0.17677" fill="none" stroke="#ffd44f"/> <path d="m526.64 528.32 0.0778 9.3692" fill="none" stroke="#ffd44f"/> <path d="m478.93 442.08 34.278 0.17677" fill="none" stroke="#ffd44f"/> <path d="m479.35 444.91 34.278 0.17677" fill="none" stroke="#ffd44f"/> <path d="m479.35 448.44 34.278 0.17677" fill="none" stroke="#ffd44f"/> <path d="m478.51 451.45 34.278 0.17677" fill="none" stroke="#ffd44f"/> <path d="m478.51 451.27 34.278 0.17677" fill="none" stroke="#ffd44f"/> <path d="m478.09 441.9v9.7227" fill="none" stroke="#ffd44f"/> <path d="m512.79 442.08 0.418 9.3692" fill="none" stroke="#ffd44f"/> <path d="m266.79 503.29 213.05-5.0921" fill="none" stroke="#ffd44f"/> <path d="m267.25 507.02 211.73-5.8876" fill="none" stroke="#ffd44f"/> <path d="m267.42 510.03 211.55-5.3573" fill="none" stroke="#ffd44f"/> <path d="m269.69 512.72 204.3-4.9153" fill="none" stroke="#ffd44f"/> <path d="m267.39 512.36 210.84-4.9153" fill="none" stroke="#ffd44f"/> <path d="m267.2 503.23v9.7227" fill="none" stroke="#ffd44f"/> <path d="m476.47 498.96 0.0167 8.6" fill="none" stroke="#ffd44f"/> <path d="m457.91 499.67 0.0167 8.6" fill="none" stroke="#ffd44f"/> <path d="m410.18 500.2 0.0167 8.6" fill="none" stroke="#ffd44f"/> <path d="m440.4 499.85 0.0167 8.6" fill="none" stroke="#ffd44f"/> <path d="m397.45 499.49 0.0167 8.6" fill="none" stroke="#ffd44f"/> <path d="m384.54 501.08 0.0167 8.6" fill="none" stroke="#ffd44f"/> <path d="m372.7 500.73 0.0167 8.6" fill="none" stroke="#ffd44f"/> <path d="m356.97 502.14 0.0167 8.6" fill="none" stroke="#ffd44f"/> <path d="m335.05 502.32 0.0167 8.6" fill="none" stroke="#ffd44f"/> <path d="m145.54 450 0.0167 47.844" fill="none" stroke="#ffd44f"/> <path d="m145.89 504.8 0.0167 47.844" fill="none" stroke="#ffd44f"/> <path d="m129.98 498.43 0.0167 47.844" fill="none" stroke="#ffd44f"/> <path d="m174.89 509.39 0.0167 47.844" fill="none" stroke="#ffd44f"/> <path d="m162.51 507.98 0.0167 47.844" fill="none" stroke="#ffd44f"/> <path d="m187.97 509.75 0.0167 47.844" fill="none" stroke="#ffd44f"/> <path d="m234.99 526.01 0.0167 47.844" fill="none" stroke="#ffd44f"/> <path d="m234.99 526.01 0.0167 47.844" fill="none" stroke="#ffd44f"/> <path d="m273.7 503.21 0.0167 8.6" fill="none" stroke="#ffd44f"/> <path d="m358.73 564.37 0.0167 8.5996" fill="none" stroke="#ffd44f"/> <path d="m358.73 564.37 0.0167 8.5996" fill="none" stroke="#ffd44f"/> <path d="m189.82 511.96 0.0167 11.782" fill="none" stroke="#ffd44f"/> <path d="m194.24 512.31 0.0167 11.782" fill="none" stroke="#ffd44f"/> <path d="m197.25 512.84 0.0167 11.782" fill="none" stroke="#ffd44f"/> <path d="m200.43 513.9 0.0167 11.782" fill="none" stroke="#ffd44f"/> <path d="m203.44 514.08 0.0167 11.782" fill="none" stroke="#ffd44f"/> <path d="m212.45 515.32 0.0167 11.782" fill="none" stroke="#ffd44f"/> <path d="m217.75 516.02 0.0167 11.782" fill="none" stroke="#ffd44f"/> <path d="m232.6 516.02 0.0167 11.782" fill="none" stroke="#ffd44f"/> <path d="m250.81 515.32 0.0167 11.782" fill="none" stroke="#ffd44f"/> <path d="m274.15 517.26 0.0167 11.782" fill="none" stroke="#ffd44f"/> <path d="m287.05 517.61 0.0167 11.782" fill="none" stroke="#ffd44f"/> <path d="m292.88 517.97 0.0167 11.782" fill="none" stroke="#ffd44f"/> <path d="m299.07 516.91 0.0167 11.782" fill="none" stroke="#ffd44f"/> <path d="m308.62 517.44 0.0167 11.782" fill="none" stroke="#ffd44f"/> <path d="m317.99 516.55 0.0167 11.782" fill="none" stroke="#ffd44f"/> <path d="m324.17 516.55 0.0167 11.782" fill="none" stroke="#ffd44f"/> <path d="m340.26 564.63 0.0167 8.5996" fill="none" stroke="#ffd44f"/> <path d="m276.89 568.23 0.0167 8.5996" fill="none" stroke="#ffd44f"/> <path d="m280.78 567.98 0.0167 8.5996" fill="none" stroke="#ffd44f"/> <path d="m285.37 567.19 0.0167 8.5996" fill="none" stroke="#ffd44f"/> <path d="m435.28 560.08 0.0167 8.5996" fill="none" stroke="#ffd44f"/> <path d="m424.67 560.99 0.0167 8.5996" fill="none" stroke="#ffd44f"/> <path d="m424.67 560.99 0.0167 8.5996" fill="none" stroke="#ffd44f"/> <path d="m265.76 568.35 212.88-9.688" fill="none" stroke="#ffd44f"/> <path d="m266.05 573.67 211.55-9.3975" fill="none" stroke="#ffd44f"/> <path d="m265.52 571.03 211.55-9.3975" fill="none" stroke="#ffd44f"/> <path d="m266.01 576.18 210.84-8.9421" fill="none" stroke="#ffd44f"/> <path d="m122.15 539.57 143.19 28.638" fill="#ffd44f" fill-rule="evenodd" stroke="#ffd44f"/> <path d="m113.67 486.85 68.865 12.39" fill="#ffd44f" fill-rule="evenodd" stroke="#ffd44f"/> <path d="m122.51 439.8 68.865 4.0257" fill="#ffd44f" fill-rule="evenodd" stroke="#ffd44f"/> <path d="m265.7 571.04c-0.70711 0-143.54-28.991-143.54-28.991" fill="#ffd44f" fill-rule="evenodd" stroke="#ffd44f"/> <path d="m182.7 501.57c-0.34007 0.05679-69.035-12.657-69.035-12.657" fill="#ffd44f" fill-rule="evenodd" stroke="#ffd44f"/> <path d="m191.54 446.14c-0.34007 0.09809-69.035-4.2716-69.035-4.2716" fill="#ffd44f" fill-rule="evenodd" stroke="#ffd44f"/> <path d="m265.87 573.51-143.72-29.168" fill="#ffd44f" fill-rule="evenodd" stroke="#ffd44f"/> <path d="m182.79 503.62-69.12-12.79" fill="#ffd44f" fill-rule="evenodd" stroke="#ffd44f"/> <path d="m191.63 448.18-69.12-4.3945" fill="#ffd44f" fill-rule="evenodd" stroke="#ffd44f"/> <path d="m265.7 575.81c-3.3588 0.88388-143.19-29.345-143.19-29.345" fill="#ffd44f" fill-rule="evenodd" stroke="#ffd44f"/> <path d="m182.7 505.56c-1.6153 1.0071-68.865-12.98-68.865-12.98" fill="#ffd44f" fill-rule="evenodd" stroke="#ffd44f"/> <path d="m191.54 450.12c-1.6153 1.2033-68.865-4.6156-68.865-4.6156" fill="#ffd44f" fill-rule="evenodd" stroke="#ffd44f"/> <path d="m165.34 450.19c0.19905 1.5718 20.749 50.069 20.749 50.069" fill="none" stroke="#fbf25e" stroke-width="2.4"/> <path d="m184.07 452.75 0.07916 56.426 34.822 5.2257-1.4142-58.549-33.487-3.1032z" fill="#fefcfd" fill-rule="evenodd" stroke="#fdfcfd"/> <path d="m152.61 387.66 0.07916 56.422 34.822 3.1681-1.4142-58.465-33.487-1.1245z" fill="#fefcfd" fill-rule="evenodd" stroke="#fdfcfd"/> <path d="m219.47 456.85 0.14702 56.493 23.621-0.8991-0.25553-54.822-23.512-0.77268z" fill="#eadeed" fill-rule="evenodd" stroke="#eadeed"/> <path d="m187.97 522.38 27.996 3.9748" fill="none" stroke="#cdcdbe"/> <path d="m252.32 526.1 23.223 2.207" fill="none" stroke="#cdcdbe"/> <path d="m218.91 526.27 32.946 0.79277" fill="none" stroke="#cdcdbe"/> <path d="m275.47 528.04 49.563-0.79822" fill="none" stroke="#cdcdbe"/> <path d="m432.27 454.08c0.3144 1.5718 32.77 50.069 32.77 50.069" fill="none" stroke="#fbf25e" stroke-width="2.4"/> <path d="m433.69 511.71c0.3144 1.5718 32.77 50.069 32.77 50.069" fill="none" stroke="#fbf25e" stroke-width="2.4"/> <path d="m361.54 512.95c0.31436 1.5718 35.27 53.069 35.27 53.069" fill="none" stroke="#fbf25e" stroke-width="2.4"/> <path d="m360.92 453.97c0.31436 1.5718 33.77 54.069 33.77 54.069" fill="none" stroke="#fbf25e" stroke-width="2.4"/> <path d="m290.5 518.07c0.31436 1.5718 32.77 50.069 32.77 50.069" fill="none" stroke="#fbf25e" stroke-width="2.4"/> <path d="m264.34 458.32c0.31436 1.5718 32.77 50.069 32.77 50.069" fill="none" stroke="#fbf25e" stroke-width="2.4"/> <path d="m361.75 454.62c-0.31436 1.5718-33.77 53.069-33.77 53.069" fill="none" stroke="#fbf25e" stroke-width="2.4"/> <path d="m432.87 454.43c-0.3144 1.5718-32.77 50.069-32.77 50.069" fill="none" stroke="#fbf25e" stroke-width="2.4"/> <path d="m432.75 511.33c-0.3143 1.5718-34.77 52.569-34.77 52.569" fill="none" stroke="#fbf25e" stroke-width="2.4"/> <path d="m362.19 512.16c-0.31436 1.5718-35.27 54.569-35.27 54.569" fill="none" stroke="#fbf25e" stroke-width="2.4"/> <path d="m291.45 517.37c-0.31436 1.5718-32.77 50.069-32.77 50.069" fill="none" stroke="#fbf25e" stroke-width="2.4"/> <path d="m236.65 514.54c-0.19905 1.5718-20.749 50.069-20.749 50.069" fill="none" stroke="#fbf25e" stroke-width="2.4"/> <path d="m148.61 497.57c-0.19905 1.5718-20.749 50.069-20.749 50.069" fill="none" stroke="#fbf25e" stroke-width="2.4"/> <path d="m144.61 445.57c-0.19905 1.5718-20.749 50.069-20.749 50.069" fill="none" stroke="#fbf25e" stroke-width="2.4"/> <path d="m165.94 448.78c-0.19905 1.5718-20.749 50.069-20.749 50.069" fill="none" stroke="#fbf25e" stroke-width="2.4"/> <path d="m183.62 504.99c-0.19905 1.5718-20.749 50.069-20.749 50.069" fill="none" stroke="#fbf25e" stroke-width="2.4"/> <path d="m234.64 520.55c0.19905 1.5718 20.749 50.069 20.749 50.069" fill="none" stroke="#fbf25e" stroke-width="2.4"/> <path d="m147.31 503.23c0.19905 1.5718 20.749 50.069 20.749 50.069" fill="none" stroke="#fbf25e" stroke-width="2.4"/> <path d="m344.16 694.52 6.375 0.375" fill="none" stroke="#6e5f77"/> <path d="m344.41 692.64 6.375 0.375" fill="none" stroke="#6e5f77"/> <path d="m344.16 691.02 6.375 0.375" fill="none" stroke="#6e5f77"/> <path d="m344.41 689.39 6.375 0.375" fill="none" stroke="#6e5f77"/> <path d="m344.16 687.14 6.375 0.375" fill="none" stroke="#6e5f77"/> <path d="m343.91 685.52 6.375 0.375" fill="none" stroke="#6e5f77"/> <path d="m344.29 683.52 6.375 0.375" fill="none" stroke="#6e5f77"/> <path d="m344.16 681.89 6.375 0.375" fill="none" stroke="#6e5f77"/> <path d="m344.04 679.89 6.375 0.375" fill="none" stroke="#6e5f77"/> <path d="m342.66 677.89 10 0.75" fill="none" stroke="#6e5f77"/> <path d="m344.29 675.89 6.375 0.375" fill="none" stroke="#6e5f77"/> <path d="m344.16 674.14 6.375 0.375" fill="none" stroke="#6e5f77"/> <path d="m344.16 671.77 6.375 0.375" fill="none" stroke="#6e5f77"/> <path d="m344.16 670.27 6.375 0.375" fill="none" stroke="#6e5f77"/> <path d="m344.04 668.27 6.375 0.375" fill="none" stroke="#6e5f77"/> <path d="m344.04 666.39 6.375 0.375" fill="none" stroke="#452c26"/> <path d="m344.29 664.52 6.375 0.375" fill="none" stroke="#452c26"/> <path d="m344.16 662.52 6.375 0.375" fill="none" stroke="#452c26"/> <path d="m344.41 660.77 6.375 0.375" fill="none" stroke="#452c26"/> <path d="m344.54 657.14 6.375 0.375" fill="none" stroke="#452c26"/> <path d="m344.04 655.14 6.375 0.375" fill="none" stroke="#452c26"/> <path d="m344.04 653.52 6.375 0.375" fill="none" stroke="#452c26"/> <path d="m344.04 651.64 6.375 0.375" fill="none" stroke="#452c26"/> <path d="m344.04 649.64 6.375 0.375" fill="none" stroke="#452c26"/> <path d="m344.04 647.64 6.375 0.375" fill="none" stroke="#452c26"/> <path d="m344.16 645.39 6.375 0.375" fill="none" stroke="#452c26"/> <path d="m344.29 643.52 6.375 0.375" fill="none" stroke="#452c26"/> <path d="m344.29 641.52 6.375 0.375" fill="none" stroke="#452c26"/> <path d="m342.91 639.89 9.125 0.625" fill="none" stroke="#452c26"/> <path d="m343.16 658.89 9.125 0.625" fill="none" stroke="#452c26"/> <path d="m292.85 700.42-0.1875 0.09375-39.969-3.375 0.04289 29.83 40.645 2.9828-0.53125-29.531z" fill="#49456d" fill-rule="evenodd"/> <path d="m315.63 688.74-22.75 11.656c0.53293 14.305 1.0938 28.441 1.0938 29.25 0 1.8149 19.966-8.4688 21.781-8.4688 0.91808 0 0.49228-16.22-0.125-32.438z" fill="#3d354f" fill-rule="evenodd"/> <path d="m114.18 486.16-0.22228-9.5582 2.4451 1.3337 0.44456 2.8897h-2.4451l-0.66684-4.4456" fill="#c9c9c9" fill-rule="evenodd" stroke="#bfbfad"/> <path d="m381.38 662.64-16.906 5.0625 0.28125 28.062 16.625-11.781v-21.344z" fill="#443766" fill-rule="evenodd"/> </g> </svg>